Patient4_TMGait_0pt2_02_right_08_GRF.mot
version=1
nRows=71
nColumns=19
inDegrees=no
endheader
time	F1x	F1y	F1z	M1x	M1y	M1z	F2x	F2y	F2z	M2x	M2y	M2z	EC1x	EC1y	EC1z	EC2x	EC2y	EC2z
16.87	-13.4079	798.2094	44.3807	-289.0916	-50.4869	854.7475	6.7842	84.4758	-6.2234	29.6268	3.3718	73.3367	-0.0592	0.0182	-0.0073	-0.0462	0.0165	0.9585
16.8931	-11.9754	811.8434	46.1942	-294.1689	-51.104	867.3831	3.9953	72.6062	-5.5548	25.4701	3.7249	63.4545	-0.0592	0.0182	-0.0073	-0.0462	0.0165	0.9585
16.9161	-10.2365	824.6182	48.0981	-298.9017	-51.6448	878.4129	1.3537	59.3287	-4.6869	20.8131	3.8419	52.2379	-0.0592	0.0182	-0.0073	-0.0462	0.0165	0.9585
16.9392	-8.2304	834.3384	49.8235	-302.5008	-51.8884	885.5986	-0.80224	45.8072	-3.699	16.0657	3.6802	40.6886	-0.0592	0.0182	-0.0073	-0.0462	0.0165	0.9585
16.9623	-5.9694	839.3176	51.1439	-304.3699	-51.6392	887.2965	-2.2306	33.1321	-2.6937	11.6134	3.2525	29.7692	-0.0592	0.0182	-0.0073	-0.0462	0.0165	0.9585
16.9854	-3.4376	838.6722	51.9455	-304.2013	-50.7996	882.7123	-2.8428	22.1599	-1.7755	7.7587	2.6229	20.2445	-0.0592	0.0182	-0.0073	-0.0462	0.0165	0.9585
17.0084	-0.60812	832.3783	52.2281	-301.997	-49.3765	871.9297	-2.8005	13.4389	-1.0257	4.6961	1.921	12.6152	-0.0592	0.0182	-0.0073	-0.0462	0.0165	0.9585
17.0315	2.5476	821.1889	52.0572	-298.0437	-47.4369	855.8042	-2.4063	7.075	-0.47137	2.4641	1.2738	6.9954	-0.0592	0.0182	-0.0073	-0.0462	0.0165	0.9585
17.0546	6.0478	806.4476	51.5176	-292.8468	-45.0683	835.7724	-1.8813	2.7552	-0.093888	0.95163	0.74009	3.1176	-0.0592	0.0182	-0.0073	-0.0462	0.0165	0.9585
17.0776	9.867	789.8502	50.6839	-287.0426	-42.3581	813.6155	-1.3559	-0.041519	0.14616	-0.026113	0.32766	0.51174	-0.0592	0.0182	-0.0073	-0.0462	0.0165	0.9585
17.1007	13.9245	773.2238	49.609	-281.3131	-39.3841	791.238	-0.89192	-1.8867	0.29526	-0.67194	0.013936	-1.3422	-0.0592	0.0182	-0.0073	-0.0462	0.0165	0.9585
17.1238	18.1039	758.3204	48.3496	-276.3056	-36.2342	770.4582	-0.50187	-3.2939	0.39849	-1.1683	-0.23781	-2.9113	-0.0592	0.0182	-0.0073	-0.0462	0.0165	0.9585
17.1469	22.2913	746.5879	46.9923	-272.5481	-33.0228	752.7835	-0.16546	-4.6479	0.48953	-1.6516	-0.46478	-4.5408	-0.0592	0.0182	-0.0073	-0.0462	0.0165	0.9585
17.1699	26.3997	738.9633	45.6508	-270.3695	-29.8822	739.2196	0.15574	-6.1524	0.58438	-2.1946	-0.69729	-6.3928	-0.0592	0.0182	-0.0073	-0.0462	0.0165	0.9585
17.193	30.3367	735.6789	44.464	-269.8221	-26.9718	730.1017	0.50674	-7.779	0.67623	-2.7874	-0.94472	-8.3923	-0.0592	0.0182	-0.0073	-0.0462	0.0165	0.9585
17.2161	33.9785	736.15	43.5823	-270.6401	-24.4775	724.99	0.92658	-9.212	0.73453	-3.3182	-1.1829	-10.1564	-0.0592	0.0182	-0.0073	-0.0462	0.0165	0.9585
17.2391	37.192	739.0368	43.1365	-272.273	-22.5764	722.7153	1.4351	-9.7865	0.70326	-3.5513	-1.3496	-10.9195	-0.0592	0.0182	-0.0073	-0.0462	0.0165	0.9585
17.2622	39.8688	742.4689	43.198	-273.9791	-21.3863	721.5794	2.0203	-8.442	0.4976	-3.1091	-1.3372	-9.4798	-0.0592	0.0182	-0.0073	-0.0462	0.0165	0.9585
17.2853	41.9483	744.3343	43.7653	-274.9394	-20.9426	719.6079	2.618	-3.7081	0.0062735	-1.4662	-0.98674	-4.1744	-0.0592	0.0182	-0.0073	-0.0462	0.0165	0.9585
17.3084	43.4158	742.5629	44.7634	-274.3688	-21.1968	714.8204	3.094	6.2372	-0.90304	2.0324	-0.087486	7.0608	-0.0592	0.0182	-0.0073	-0.0462	0.0165	0.9585
17.3314	44.2847	735.3145	46.0451	-271.5882	-22.0188	705.4197	3.2224	23.3813	-2.3636	8.107	1.6082	26.483	-0.0592	0.0182	-0.0073	-0.0462	0.0165	0.9585
17.3545	44.5591	721.0487	47.3749	-266.0486	-23.1959	689.8816	2.6708	49.497	-4.4749	17.4095	4.3472	56.1273	-0.0592	0.0182	-0.0073	-0.0462	0.0165	0.9585
17.3776	44.1734	698.5401	48.4315	-257.3327	-24.4586	667.0135	0.96383	85.5305	-7.2433	30.3073	8.3193	97.1042	-0.0592	0.0182	-0.0073	-0.0462	0.0165	0.9585
17.4006	42.9993	667.0505	48.8684	-245.2114	-25.534	636.1206	-2.4739	130.936	-10.512	46.6443	13.5561	148.827	-0.0592	0.0182	-0.0073	-0.0462	0.0165	0.9585
17.4237	40.934	626.666	48.4113	-229.766	-26.2007	597.2889	-7.6703	183.4339	-14.0695	65.6321	19.8253	208.7132	-0.0592	0.0182	-0.0073	-0.0462	0.0165	0.9585
17.4468	38.0305	578.6333	46.9345	-211.5085	-26.3101	551.6481	-14.0732	239.2783	-17.9384	85.9083	26.9387	272.4768	-0.0592	0.0182	-0.0073	-0.0462	0.0165	0.9585
17.4699	34.5609	525.4099	44.4835	-191.3963	-25.7827	501.3958	-20.9156	294.7112	-22.1575	106.0783	34.642	335.8081	-0.0592	0.0182	-0.0073	-0.0462	0.0165	0.9585
17.4929	30.9541	470.1077	41.2313	-170.6176	-24.5916	449.2994	-27.4631	347.4525	-26.3969	125.3018	42.2909	396.0882	-0.0592	0.0182	-0.0073	-0.0462	0.0165	0.9585
17.516	27.6082	415.6033	37.3815	-150.259	-22.7439	397.9197	-33.19	396.1837	-30.1813	143.1086	49.1556	451.79	-0.0592	0.0182	-0.0073	-0.0462	0.0165	0.9585
17.5391	24.7701	364.0466	33.1446	-131.1207	-20.313	349.1951	-37.8013	440.1979	-33.2014	159.2505	54.7725	502.0752	-0.0592	0.0182	-0.0073	-0.0462	0.0165	0.9585
17.5621	22.555	316.743	28.7243	-113.6743	-17.4249	304.333	-41.2087	479.3135	-35.3644	173.6627	58.9926	546.6883	-0.0592	0.0182	-0.0073	-0.0462	0.0165	0.9585
17.5852	21.027	274.2726	24.3076	-98.1118	-14.217	263.8958	-43.4847	513.8535	-36.693	186.4579	61.8543	585.9225	-0.0592	0.0182	-0.0073	-0.0462	0.0165	0.9585
17.6083	20.2609	236.668	20.0504	-84.4162	-10.8003	227.9456	-44.7598	544.5161	-37.2707	197.8797	63.4817	620.4746	-0.0592	0.0182	-0.0073	-0.0462	0.0165	0.9585
17.6314	20.3322	203.5932	16.0425	-72.4347	-7.2367	196.205	-45.1833	572.0466	-37.2461	208.1816	64.0761	651.1114	-0.0592	0.0182	-0.0073	-0.0462	0.0165	0.9585
17.6544	21.2569	174.5893	12.316	-61.9706	-3.5654	168.2835	-44.9156	597.0052	-36.7631	217.5552	63.8424	678.4431	-0.0592	0.0182	-0.0073	-0.0462	0.0165	0.9585
17.6775	22.9175	149.3172	8.8811	-52.8762	0.14399	143.8965	-44.0992	619.6747	-35.8762	226.1077	62.8905	702.8238	-0.0592	0.0182	-0.0073	-0.0462	0.0165	0.9585
17.7006	24.9916	127.6392	5.7661	-45.0837	3.7334	122.9439	-42.8363	640.0179	-34.5702	233.8418	61.2398	724.2893	-0.0592	0.0182	-0.0073	-0.0462	0.0165	0.9585
17.7236	26.9857	109.4897	3.0409	-38.5598	6.9487	105.3923	-41.1958	657.769	-32.8537	240.6681	58.9205	742.6346	-0.0592	0.0182	-0.0073	-0.0462	0.0165	0.9585
17.7467	28.3959	94.6252	0.79392	-33.2151	9.5184	91.0288	-39.2316	672.6779	-30.8341	246.4746	56.0619	757.6732	-0.0592	0.0182	-0.0073	-0.0462	0.0165	0.9585
17.7698	28.8691	82.4292	-0.89764	-28.8321	11.2385	79.2689	-37.0223	684.7789	-28.7503	251.2218	52.9474	769.5316	-0.0592	0.0182	-0.0073	-0.0462	0.0165	0.9585
17.7929	28.2507	71.9416	-1.9971	-25.0765	12.0159	69.1861	-34.7112	694.5486	-26.9272	255.0203	49.9846	778.8285	-0.0592	0.0182	-0.0073	-0.0462	0.0165	0.9585
17.8159	26.5187	62.1808	-2.5265	-21.6082	11.8625	59.8309	-32.4969	702.8589	-25.6642	258.1411	47.5828	786.6142	-0.0592	0.0182	-0.0073	-0.0462	0.0165	0.9585
17.839	23.7473	52.4834	-2.5688	-18.1972	10.8824	50.5554	-30.566	710.7632	-25.1195	260.9571	46.0035	794.1131	-0.0592	0.0182	-0.0073	-0.0462	0.0165	0.9585
17.8621	20.1254	42.6409	-2.2462	-14.7672	9.2585	41.1445	-29.0327	719.1806	-25.2893	263.8296	45.3076	802.3614	-0.0592	0.0182	-0.0073	-0.0462	0.0165	0.9585
17.8851	15.9601	32.8713	-1.7037	-11.3846	7.2376	31.795	-27.9198	728.6271	-26.052	267.0013	45.3931	811.912	-0.0592	0.0182	-0.0073	-0.0462	0.0165	0.9585
17.9082	11.6494	23.6739	-1.0969	-8.213	5.1115	22.9818	-27.1856	739.2041	-27.2203	270.5762	46.053	822.8232	-0.0592	0.0182	-0.0073	-0.0462	0.0165	0.9585
17.9313	7.6276	15.6217	-0.5545	-5.4438	3.1607	15.2524	-26.7324	750.7646	-28.5789	274.5638	47.0153	834.8383	-0.0592	0.0182	-0.0073	-0.0462	0.0165	0.9585
17.9544	4.2597	9.1524	-0.14445	-3.2227	1.578	9.0286	-26.4066	763.0567	-29.9363	278.9161	48.0027	847.5481	-0.0592	0.0182	-0.0073	-0.0462	0.0165	0.9585
17.9774	1.7162	4.4268	0.12838	-1.6005	0.42209	4.4718	-26.0562	775.7957	-31.1578	283.5487	48.7965	860.5038	-0.0592	0.0182	-0.0073	-0.0462	0.0165	0.9585
18.0005	-0.027637	1.3182	0.28958	-0.53157	-0.34424	1.4689	-25.5738	788.7094	-32.1702	288.3571	49.2595	873.2983	-0.0592	0.0182	-0.0073	-0.0462	0.0165	0.9585
18.0236	-1.1007	-0.47001	0.37087	0.084677	-0.79768	-0.25973	-24.9059	801.4985	-32.951	293.2063	49.3338	885.5422	-0.0592	0.0182	-0.0073	-0.0462	0.0165	0.9585
18.0466	-1.6692	-1.2858	0.39816	0.36694	-1.0193	-1.045	-24.0621	813.6803	-33.5069	297.8835	49.0275	896.7046	-0.0592	0.0182	-0.0073	-0.0462	0.0165	0.9585
18.0697	-1.8931	-1.4564	0.39116	0.42802	-1.0836	-1.2004	-23.0795	824.4962	-33.8369	302.0759	48.3603	905.9992	-0.0592	0.0182	-0.0073	-0.0462	0.0165	0.9585
18.0928	-1.9049	-1.2539	0.36496	0.36239	-1.0547	-0.99352	-21.9575	832.9409	-33.9333	305.3862	47.3364	912.391	-0.0592	0.0182	-0.0073	-0.0462	0.0165	0.9585
18.1159	-1.8039	-0.88925	0.33056	0.24333	-0.981	-0.63901	-20.632	837.9545	-33.8003	307.4059	45.9549	914.7824	-0.0592	0.0182	-0.0073	-0.0462	0.0165	0.9585
18.1389	-1.6597	-0.52131	0.29392	0.12519	-0.89395	-0.30051	-19.0051	838.7143	-33.458	307.8207	44.2248	912.3274	-0.0592	0.0182	-0.0073	-0.0462	0.0165	0.9585
18.162	-1.5157	-0.27124	0.25731	0.049006	-0.80945	-0.098175	-16.9946	834.8591	-32.9421	306.4918	42.1815	904.6814	-0.0592	0.0182	-0.0073	-0.0462	0.0165	0.9585
18.1851	-1.3944	-0.23232	0.21811	0.047128	-0.72826	-0.13047	-14.5639	826.596	-32.3041	303.495	39.8946	892.1212	-0.0592	0.0182	-0.0073	-0.0462	0.0165	0.9585
18.2081	-1.2987	-0.4782	0.16939	0.14547	-0.6411	-0.48101	-11.7339	814.7024	-31.6076	299.1218	37.4633	875.5453	-0.0592	0.0182	-0.0073	-0.0462	0.0165	0.9585
18.2312	-1.2161	-1.0656	0.1046	0.36297	-0.53614	-1.2117	-8.5725	800.3977	-30.9218	293.8299	35.0039	856.3227	-0.0592	0.0182	-0.0073	-0.0462	0.0165	0.9585
18.2543	-1.1243	-2.0148	0.018085	0.70832	-0.39899	-2.3473	-5.1831	785.1263	-30.3174	288.1621	32.6401	836.0557	-0.0592	0.0182	-0.0073	-0.0462	0.0165	0.9585
18.2774	-0.99485	-3.2908	-0.093162	1.1715	-0.21607	-3.85	-1.7055	770.3603	-29.872	282.6722	30.5126	816.3646	-0.0592	0.0182	-0.0073	-0.0462	0.0165	0.9585
18.3004	-0.79778	-4.7723	-0.22794	1.7114	0.019793	-5.5761	1.7104	757.4499	-29.6606	277.8707	28.7554	798.718	-0.0592	0.0182	-0.0073	-0.0462	0.0165	0.9585
18.3235	-0.50518	-6.2053	-0.37599	2.2393	0.30206	-7.2192	4.9472	747.4608	-29.7351	274.1638	27.4594	784.2556	-0.0592	0.0182	-0.0073	-0.0462	0.0165	0.9585
18.3466	-0.095266	-7.1509	-0.51449	2.5987	0.60765	-8.2512	7.937	740.955	-30.1187	271.7685	26.6621	773.5627	-0.0592	0.0182	-0.0073	-0.0462	0.0165	0.9585
18.3696	0.43547	-6.9333	-0.60615	2.5484	0.88933	-7.8677	10.6501	737.8092	-30.8096	270.6433	26.3578	766.5066	-0.0592	0.0182	-0.0073	-0.0462	0.0165	0.9585
18.3927	1.0599	-4.6067	-0.59007	1.7484	1.0616	-4.9517	13.067	737.1702	-31.7738	270.4727	26.5013	762.2144	-0.0592	0.0182	-0.0073	-0.0462	0.0165	0.9585
18.4158	1.6994	1.0317	-0.37695	-0.23676	0.98792	1.9063	15.1485	737.5785	-32.9311	270.7145	27.006	759.2209	-0.0592	0.0182	-0.0073	-0.0462	0.0165	0.9585
18.4389	2.2032	11.3474	0.14863	-3.9057	0.4755	14.2947	16.8381	737.2032	-34.147	270.6872	27.7381	755.7065	-0.0592	0.0182	-0.0073	-0.0462	0.0165	0.9585
18.4619	2.3248	27.6413	1.1178	-9.7428	-0.72027	33.7088	18.1012	734.0787	-35.2508	269.6593	28.5205	749.7108	-0.0592	0.0182	-0.0073	-0.0462	0.0165	0.9585
18.485	1.7273	50.7853	2.66	-18.0876	-2.8714	61.1131	18.9326	726.2609	-36.0688	266.9065	29.1637	739.2948	-0.0592	0.0182	-0.0073	-0.0462	0.0165	0.9585
